<svg xmlns="http://www.w3.org/2000/svg" viewBox="0 0 32 32" width="24" height="24" style="fill: rgba(85, 139, 47, 1);border-color: rgba(0,0,0,0);border-width: bpx;border-style: undefined" filter="none"><path d="M14.667 23.917c-5.284-0.692-9.321-5.166-9.321-10.583 0-5.887 4.769-10.66 10.654-10.668h0.001c0.002 0 0.005 0 0.008 0 5.891 0 10.667 4.776 10.667 10.667 0 5.424-4.048 9.902-9.288 10.578l-0.053 0.006v2.765c5.261 0.123 9.333 0.964 9.333 1.984 0 1.104-4.776 2-10.667 2s-10.667-0.896-10.667-2c0-1.020 4.072-1.861 9.333-1.984v-2.765zM16 16c1.473 0 2.667-1.194 2.667-2.667s-1.194-2.667-2.667-2.667v0c-1.473 0-2.667 1.194-2.667 2.667s1.194 2.667 2.667 2.667v0z"></path></svg>