<svg xmlns="http://www.w3.org/2000/svg" viewBox="0 0 32 32" width="24" height="24" style="fill: rgba(85, 139, 47, 0.86);border-color: rgba(0,0,0,0);border-width: bpx;border-style: undefined" filter="none"><path d="M25.333 29.333h-18.667c-2.209 0-4-1.791-4-4v0-21.333c0-0.736 0.597-1.333 1.333-1.333v0h18.667c0.736 0 1.333 0.597 1.333 1.333v0 16h5.333v5.333c0 2.209-1.791 4-4 4v0zM24 22.667v2.667c0 0.736 0.597 1.333 1.333 1.333s1.333-0.597 1.333-1.333v0-2.667h-2.667zM8 9.333v2.667h10.667v-2.667h-10.667zM8 14.667v2.667h10.667v-2.667h-10.667zM8 20v2.667h6.667v-2.667h-6.667z"></path></svg>