<svg xmlns="http://www.w3.org/2000/svg" viewBox="0 0 32 32" width="20" height="20" style="fill: rgba(75, 132, 77, 1);border-color: rgba(0,0,0,0);border-width: bpx;border-style: undefined" filter="none"><path d="M29.76 5.568c0-1.6-0.896-2.4-2.496-2.368-0.544 0.032-0.64 0.224-0.64 0.704 0.032 0.8 0.032 1.632 0 2.432-0.064 1.312-0.832 2.112-2.144 2.208-0.672 0.064-1.376 0.064-2.048 0-1.376-0.096-2.176-0.928-2.208-2.336 0-0.768-0.032-1.536 0-2.304 0.032-0.512-0.128-0.704-0.64-0.704-2.4 0.032-4.8 0.032-7.2 0-0.544 0-0.64 0.256-0.608 0.704v2.432c-0.032 1.216-0.736 2.048-1.952 2.176-0.736 0.096-1.504 0.096-2.24 0.032-1.376-0.064-2.112-0.864-2.176-2.24-0.032-0.8-0.032-1.632 0-2.432 0.032-0.512-0.16-0.64-0.672-0.672-1.632-0.032-2.496 0.8-2.496 2.464v23.872c0 1.696 0.736 2.464 2.464 2.464h22.592c1.728 0 2.464-0.736 2.464-2.464v-23.968zM5.376 11.232c0-0.416 0.192-0.576 0.608-0.576h5.248c0.384 0 0.544 0.16 0.544 0.512-0.015 0.643-0.024 1.4-0.024 2.16s0.009 1.517 0.026 2.272l-0.002-0.112c0 0.448-0.256 0.512-0.64 0.512h-5.184c-0.416 0-0.576-0.16-0.576-0.576v-4.192zM11.776 28.224c0 0.448-0.16 0.64-0.608 0.64-0.757-0.015-1.649-0.024-2.544-0.024s-1.787 0.009-2.677 0.026l0.133-0.002c-0.512 0-0.704-0.192-0.704-0.672 0.032-1.376 0-2.752 0-4.128 0-0.416 0.16-0.576 0.576-0.576 0.864 0.032 1.728 0 2.592 0s1.728 0.032 2.592 0c0.48 0 0.64 0.128 0.64 0.608-0.015 0.615-0.024 1.338-0.024 2.064s0.009 1.449 0.026 2.171l-0.002-0.107zM11.040 22.432c-0.832-0.032-1.664 0-2.496 0-0.8 0-1.632-0.032-2.432 0-0.512 0.032-0.768-0.128-0.736-0.672 0.032-1.344 0.032-2.72 0-4.064 0-0.512 0.192-0.64 0.704-0.64 1.664 0.032 3.328 0.032 5.024 0 0.576-0.032 0.672 0.224 0.672 0.736-0.015 0.586-0.024 1.276-0.024 1.968s0.009 1.382 0.026 2.070l-0.002-0.102c0.032 0.576-0.192 0.736-0.736 0.704zM13.44 10.656h5.088c0.48-0.032 0.64 0.16 0.64 0.608 0 1.376-0.032 2.752 0 4.128 0 0.512-0.192 0.608-0.64 0.608-0.864-0.032-1.728 0-2.592 0s-1.696-0.032-2.528 0c-0.416 0-0.576-0.16-0.576-0.576 0.015-0.629 0.024-1.369 0.024-2.112s-0.009-1.483-0.026-2.222l0.002 0.11c0-0.448 0.192-0.544 0.608-0.544zM12.832 17.696c0-0.48 0.128-0.64 0.608-0.64 1.696 0.032 3.424 0.032 5.12 0 0.48 0 0.608 0.16 0.608 0.64v4.128c0 0.448-0.16 0.64-0.608 0.608-0.864-0.032-1.728 0-2.592 0-0.832 0-1.632-0.032-2.432 0-0.48 0.032-0.704-0.064-0.704-0.64 0.015-0.61 0.024-1.328 0.024-2.048s-0.009-1.438-0.026-2.154l0.002 0.106zM19.168 28.128c0.032 0.544-0.192 0.736-0.704 0.736-0.738-0.015-1.608-0.024-2.48-0.024s-1.742 0.009-2.61 0.026l0.13-0.002c-0.48 0-0.704-0.16-0.672-0.672 0.015-0.6 0.024-1.307 0.024-2.016s-0.009-1.416-0.026-2.12l0.002 0.104c0-0.512 0.16-0.704 0.672-0.672 0.832 0.032 1.664 0 2.496 0s1.632 0.032 2.432 0c0.512-0.032 0.768 0.128 0.736 0.704-0.015 0.586-0.024 1.276-0.024 1.968s0.009 1.382 0.026 2.070l-0.002-0.102zM20.224 11.264c0-0.448 0.16-0.64 0.608-0.608h5.12c0.48-0.032 0.704 0.128 0.704 0.64-0.015 0.615-0.024 1.338-0.024 2.064s0.009 1.449 0.026 2.171l-0.002-0.107c0 0.416-0.16 0.576-0.608 0.576h-2.688c-0.8 0-1.6-0.032-2.4 0-0.512 0.032-0.768-0.128-0.736-0.704 0.015-0.6 0.024-1.307 0.024-2.016s-0.009-1.416-0.026-2.12l0.002 0.104zM26.624 28.288c0.032 0.416-0.192 0.576-0.576 0.576-1.76-0.032-3.52-0.032-5.28 0-0.384 0-0.544-0.192-0.544-0.544v-4.32c0-0.48 0.288-0.512 0.64-0.512h2.592c0.864 0 1.728 0.032 2.592 0 0.416 0 0.608 0.16 0.576 0.576v4.224zM25.888 22.432c-0.832-0.032-1.664 0-2.496 0-0.864 0-1.728-0.032-2.592 0-0.416 0-0.576-0.16-0.576-0.576 0-1.408 0.032-2.816 0-4.192 0-0.512 0.192-0.608 0.64-0.608h5.088c0.512 0 0.704 0.16 0.704 0.672-0.015 0.596-0.024 1.297-0.024 2s0.009 1.404 0.026 2.104l-0.002-0.104c0 0.608-0.256 0.736-0.768 0.704zM8.704 7.456c1.088-0.064 1.92-0.928 1.984-2.048 0.032-0.576 0-1.152 0-1.696s0.032-1.088 0-1.632c-0.064-1.12-0.864-1.984-1.952-2.080-1.088-0.064-2.048 0.672-2.208 1.792-0.076 0.577-0.12 1.243-0.12 1.92s0.044 1.343 0.128 1.997l-0.008-0.077c0.128 1.152 1.12 1.888 2.176 1.824zM23.36 7.456c1.184 0.064 2.112-0.864 2.208-2.144 0.032-0.512 0-0.992 0-1.504 0-0.576 0.032-1.152-0.032-1.728-0.064-1.216-0.992-2.080-2.144-2.080-1.12 0.032-2.048 0.928-2.080 2.144-0.015 0.467-0.024 1.017-0.024 1.568s0.009 1.101 0.026 1.648l-0.002-0.080c0.032 1.248 0.896 2.144 2.048 2.176z"></path></svg>