<svg xmlns="http://www.w3.org/2000/svg" viewBox="0 0 32 32" width="21" height="21" style="fill: rgba(75, 132, 77, 1);border-color: rgba(0,0,0,0);border-width: bpx;border-style: undefined" filter="none"><path d="M9.882 26.997c1.774 1.065 3.371 1.774 4.969 1.952l0.177-1.775c-1.242-0.177-2.661-0.709-4.259-1.597l-0.885 1.419zM4.559 19.723c0.708 1.952 1.419 3.548 2.485 4.789l1.419-1.242c-0.889-1.065-1.6-2.307-2.131-4.081l-1.774 0.533zM18.577 27.174l0.354 1.775c1.941-0.316 3.675-1.002 5.2-1.984l-0.053 0.032-0.887-1.419c-1.239 0.708-2.837 1.241-4.61 1.596zM16.802 3.040c-3.904 0-7.275 1.598-9.938 4.614l-4.080-2.485 0.708 9.76 9.051-3.726-4.262-2.661c2.13-2.485 5.147-3.727 8.341-3.727 6.21 0 11.179 4.969 11.179 11.179 0 2.308-0.709 4.437-1.774 6.212l1.419 0.887c1.422-2.13 2.131-4.614 2.131-7.275 0.177-6.923-5.679-12.779-12.779-12.779zM5.090 12.267l-0.354-3.904 3.904 2.308-3.552 1.596z"></path></svg>