<svg xmlns="http://www.w3.org/2000/svg" viewBox="0 0 32 32" width="21" height="21" style="fill: rgba(26, 93, 31, 1);border-color: rgba(0,0,0,0);border-width: bpx;border-style: undefined" filter="none"><path d="M15.424 5.148l-10.785 17.449c-1.165 1.885-0.316 3.403 1.889 3.403h20.944c2.204 0 3.050-1.523 1.889-3.403l-10.785-17.449c-0.868-1.404-2.281-1.408-3.151 0zM16.353 5.523c0.347-0.561 0.912-0.559 1.258 0l11.005 17.783c0.579 0.936 0.146 1.695-0.942 1.695h-21.384c-1.099 0-1.524-0.754-0.942-1.695l11.005-17.783zM17 11c-0.552 0-1 0.453-1 0.997v6.006c0 0.551 0.444 0.997 1 0.997 0.552 0 1-0.453 1-0.997v-6.006c0-0.551-0.444-0.997-1-0.997v0zM17 23c0.552 0 1-0.448 1-1s-0.448-1-1-1c-0.552 0-1 0.448-1 1s0.448 1 1 1v0z"></path></svg>