<svg xmlns="http://www.w3.org/2000/svg" viewBox="0 0 32 32" width="17" height="17" style="fill: rgba(26, 93, 31, 1);border-color: rgba(0,0,0,0);border-width: bpx;border-style: undefined" filter="none"><path d="M2.667 29.333c0-5.891 4.776-10.667 10.667-10.667s10.667 4.776 10.667 10.667v0h-2.667c0-4.418-3.582-8-8-8s-8 3.582-8 8v0h-2.667zM13.333 17.333c-4.42 0-8-3.58-8-8s3.58-8 8-8 8 3.58 8 8-3.58 8-8 8zM13.333 14.667c2.947 0 5.333-2.387 5.333-5.333s-2.387-5.333-5.333-5.333-5.333 2.387-5.333 5.333 2.387 5.333 5.333 5.333zM24.379 19.604c3.738 1.714 6.288 5.423 6.288 9.728 0 0 0 0.001 0 0.001v-0h-2.667c0-0 0-0.001 0-0.002 0-3.229-1.912-6.011-4.666-7.275l-0.050-0.020 1.093-2.432zM23.461 4.551c2.686 1.129 4.539 3.738 4.539 6.78 0 0.001 0 0.002 0 0.003v-0c0 0.001 0 0.001 0 0.002 0 3.815-2.914 6.95-6.637 7.3l-0.029 0.002v-2.684c2.277-0.335 4.005-2.276 4.005-4.62 0-1.831-1.055-3.416-2.59-4.18l-0.027-0.012 0.74-2.591z"></path></svg>