<svg xmlns="http://www.w3.org/2000/svg" viewBox="0 0 32 32" width="24" height="24" style="fill: rgba(102, 186, 105, 1);border-color: rgba(0,0,0,0);border-width: bpx;border-style: undefined" filter="none"><path d="M16 1.371c-8.381 0-15.238 6.857-15.238 15.238s6.857 15.238 15.238 15.238 15.238-6.857 15.238-15.238-6.857-15.238-15.238-15.238zM28.495 11.124l-6.095 6.095v-12.648c2.743 1.371 4.876 3.657 6.095 6.552zM10.971 16.61c0-2.743 2.286-5.029 5.029-5.029s5.029 2.286 5.029 5.029c0 2.743-2.286 5.029-5.029 5.029s-5.029-2.286-5.029-5.029zM21.029 3.81v8.533c-0.152-0.305-0.457-0.457-0.61-0.61l-8.229-8.229c1.219-0.305 2.59-0.61 3.962-0.61 1.676 0 3.352 0.305 4.876 0.914zM10.514 3.962l6.095 6.095h-12.648c1.524-2.743 3.81-4.876 6.552-6.095zM3.2 11.581h8.533l-8.99 8.99c-0.305-1.219-0.61-2.59-0.61-3.962 0.152-1.829 0.457-3.505 1.067-5.029zM3.505 22.095l6.095-6.095v12.495c-2.743-1.371-4.876-3.657-6.095-6.4zM10.971 29.41v-8.533c0.152 0.305 0.457 0.457 0.61 0.61l8.229 8.229c-1.219 0.305-2.59 0.61-3.81 0.61-1.829 0-3.505-0.305-5.029-0.914zM21.486 29.105l-6.095-6.095h12.648c-1.524 2.743-3.81 4.876-6.552 6.095zM28.8 21.638h-8.533l8.99-8.99c0.305 1.219 0.61 2.59 0.61 3.962-0.152 1.829-0.457 3.505-1.067 5.029z"></path></svg>