<svg xmlns="http://www.w3.org/2000/svg" viewBox="0 0 32 32" width="24" height="24" style="fill: rgba(26, 93, 31, 1);border-color: rgba(0,0,0,0);border-width: bpx;border-style: undefined" filter="none"><path d="M30.048 26.72c-1.344-3.68-3.648-6.496-7.040-8.416-0.16-0.096-0.288-0.096-0.448 0.032-1.824 1.536-3.936 2.368-6.304 2.432-2.56 0.032-4.832-0.768-6.784-2.4-0.192-0.16-0.32-0.16-0.512-0.064-1.344 0.768-2.592 1.728-3.648 2.88-2.24 2.4-3.584 5.248-4.096 8.512-0.064 0.448-0.096 0.864-0.16 1.312v0.992h29.536c0.256 0 0.352-0.064 0.352-0.352-0.064-1.696-0.32-3.328-0.896-4.928zM16 18.080c4.989-0.025 9.024-4.075 9.024-9.068 0-0.007 0-0.014-0-0.021v0.001c0-4.96-4.064-8.992-9.024-8.992-5.024 0-9.024 4.064-9.024 9.088 0.032 4.96 4.096 8.992 9.024 8.992zM21.568 12.48c-1.504 1.632-3.168 2.88-5.408 2.944-2.336 0.096-4-1.248-5.504-2.944h10.912z"></path></svg>