<svg xmlns="http://www.w3.org/2000/svg" viewBox="0 0 32 32" width="13" height="13" style="fill: rgba(16, 16, 16, 0.47);border-color: rgba(0,0,0,0);border-width: bpx;border-style: undefined" filter="none"><path d="M8.032 28.64c0.032 0.768 0.64 1.376 1.408 1.376h13.152c0.736 0 1.376-0.608 1.408-1.376l0.928-19.84h-17.856l0.96 19.84zM18.976 13.728c0-0.288 0.256-0.544 0.576-0.544h0.928c0.32 0 0.576 0.256 0.576 0.544v11.36c0 0.288-0.288 0.544-0.576 0.544h-0.928c-0.32 0-0.576-0.256-0.576-0.544v-11.36zM14.976 13.728c0-0.288 0.256-0.544 0.576-0.544h0.928c0.297 0.009 0.535 0.247 0.544 0.543l0 0.001v11.36c-0.009 0.297-0.247 0.535-0.543 0.544l-0.001 0h-0.928c-0.32 0-0.576-0.256-0.576-0.544v-11.36zM10.976 13.728c0-0.288 0.256-0.544 0.576-0.544h0.896c0.32 0 0.576 0.256 0.576 0.544v11.36c0 0.288-0.256 0.544-0.576 0.544h-0.896c-0.32 0-0.576-0.256-0.576-0.544v-11.36zM25.568 3.456h-6.080v-1.152c0-0.16-0.128-0.32-0.288-0.32h-6.368c-0.16 0-0.32 0.16-0.32 0.32v1.152h-6.048c-0.48 0-0.896 0.384-0.896 0.864v2.784h20.864v-2.784c0-0.001 0-0.003 0-0.004 0-0.475-0.385-0.86-0.86-0.86-0.001 0-0.003 0-0.004 0h0z"></path></svg>